STARTFONT 2.1
FONT -xargon-font1-medium-r-normal--6-160-75-75-c-80-us-ascii
SIZE 6 75 75
FONTBOUNDINGBOX 6 6 0 0
STARTPROPERTIES 2
FONT_ASCENT 6
FONT_DESCENT 0
ENDPROPERTIES
CHARS 95
STARTCHAR U+0020
ENCODING 32
SWIDTH 0 0
DWIDTH 6 0
BBX 6 6 0 0
BITMAP
00
00
00
00
00
00
ENDCHAR
STARTCHAR U+0021
ENCODING 33
SWIDTH 0 0
DWIDTH 6 0
BBX 6 6 0 0
BITMAP
30
30
30
00
30
00
ENDCHAR
STARTCHAR U+0022
ENCODING 34
SWIDTH 0 0
DWIDTH 6 0
BBX 6 6 0 0
BITMAP
28
28
00
00
00
00
ENDCHAR
STARTCHAR U+0023
ENCODING 35
SWIDTH 0 0
DWIDTH 6 0
BBX 6 6 0 0
BITMAP
28
7C
28
7C
28
00
ENDCHAR
STARTCHAR U+0024
ENCODING 36
SWIDTH 0 0
DWIDTH 6 0
BBX 6 6 0 0
BITMAP
3C
50
38
14
78
00
ENDCHAR
STARTCHAR U+0025
ENCODING 37
SWIDTH 0 0
DWIDTH 6 0
BBX 6 6 0 0
BITMAP
64
6C
18
3C
6C
00
ENDCHAR
STARTCHAR U+0026
ENCODING 38
SWIDTH 0 0
DWIDTH 6 0
BBX 6 6 0 0
BITMAP
18
28
30
6C
38
00
ENDCHAR
STARTCHAR U+0027
ENCODING 39
SWIDTH 0 0
DWIDTH 6 0
BBX 6 6 0 0
BITMAP
30
30
00
00
00
00
ENDCHAR
STARTCHAR U+0028
ENCODING 40
SWIDTH 0 0
DWIDTH 6 0
BBX 6 6 0 0
BITMAP
18
30
30
30
18
00
ENDCHAR
STARTCHAR U+0029
ENCODING 41
SWIDTH 0 0
DWIDTH 6 0
BBX 6 6 0 0
BITMAP
30
18
18
18
30
00
ENDCHAR
STARTCHAR U+002A
ENCODING 42
SWIDTH 0 0
DWIDTH 6 0
BBX 6 6 0 0
BITMAP
6C
38
7C
38
6C
00
ENDCHAR
STARTCHAR U+002B
ENCODING 43
SWIDTH 0 0
DWIDTH 6 0
BBX 6 6 0 0
BITMAP
00
10
38
10
00
00
ENDCHAR
STARTCHAR U+002C
ENCODING 44
SWIDTH 0 0
DWIDTH 6 0
BBX 6 6 0 0
BITMAP
00
00
00
18
30
00
ENDCHAR
STARTCHAR U+002D
ENCODING 45
SWIDTH 0 0
DWIDTH 6 0
BBX 6 6 0 0
BITMAP
00
00
38
00
00
00
ENDCHAR
STARTCHAR U+002E
ENCODING 46
SWIDTH 0 0
DWIDTH 6 0
BBX 6 6 0 0
BITMAP
00
00
00
30
30
00
ENDCHAR
STARTCHAR U+002F
ENCODING 47
SWIDTH 0 0
DWIDTH 6 0
BBX 6 6 0 0
BITMAP
18
18
30
60
60
00
ENDCHAR
STARTCHAR U+0030
ENCODING 48
SWIDTH 0 0
DWIDTH 6 0
BBX 6 6 0 0
BITMAP
78
6C
6C
6C
3C
00
ENDCHAR
STARTCHAR U+0031
ENCODING 49
SWIDTH 0 0
DWIDTH 6 0
BBX 6 6 0 0
BITMAP
30
70
30
30
78
00
ENDCHAR
STARTCHAR U+0032
ENCODING 50
SWIDTH 0 0
DWIDTH 6 0
BBX 6 6 0 0
BITMAP
78
0C
7C
60
7C
00
ENDCHAR
STARTCHAR U+0033
ENCODING 51
SWIDTH 0 0
DWIDTH 6 0
BBX 6 6 0 0
BITMAP
78
0C
3C
0C
78
00
ENDCHAR
STARTCHAR U+0034
ENCODING 52
SWIDTH 0 0
DWIDTH 6 0
BBX 6 6 0 0
BITMAP
6C
6C
7C
0C
0C
00
ENDCHAR
STARTCHAR U+0035
ENCODING 53
SWIDTH 0 0
DWIDTH 6 0
BBX 6 6 0 0
BITMAP
7C
60
78
0C
78
00
ENDCHAR
STARTCHAR U+0036
ENCODING 54
SWIDTH 0 0
DWIDTH 6 0
BBX 6 6 0 0
BITMAP
3C
60
78
6C
38
00
ENDCHAR
STARTCHAR U+0037
ENCODING 55
SWIDTH 0 0
DWIDTH 6 0
BBX 6 6 0 0
BITMAP
7C
0C
18
30
30
00
ENDCHAR
STARTCHAR U+0038
ENCODING 56
SWIDTH 0 0
DWIDTH 6 0
BBX 6 6 0 0
BITMAP
38
6C
38
6C
38
00
ENDCHAR
STARTCHAR U+0039
ENCODING 57
SWIDTH 0 0
DWIDTH 6 0
BBX 6 6 0 0
BITMAP
38
6C
3C
0C
38
00
ENDCHAR
STARTCHAR U+003A
ENCODING 58
SWIDTH 0 0
DWIDTH 6 0
BBX 6 6 0 0
BITMAP
30
30
00
30
30
00
ENDCHAR
STARTCHAR U+003B
ENCODING 59
SWIDTH 0 0
DWIDTH 6 0
BBX 6 6 0 0
BITMAP
00
18
00
18
30
00
ENDCHAR
STARTCHAR U+003C
ENCODING 60
SWIDTH 0 0
DWIDTH 6 0
BBX 6 6 0 0
BITMAP
18
30
60
30
18
00
ENDCHAR
STARTCHAR U+003D
ENCODING 61
SWIDTH 0 0
DWIDTH 6 0
BBX 6 6 0 0
BITMAP
00
38
00
38
00
00
ENDCHAR
STARTCHAR U+003E
ENCODING 62
SWIDTH 0 0
DWIDTH 6 0
BBX 6 6 0 0
BITMAP
60
30
18
30
60
00
ENDCHAR
STARTCHAR U+003F
ENCODING 63
SWIDTH 0 0
DWIDTH 6 0
BBX 6 6 0 0
BITMAP
78
0C
38
00
30
00
ENDCHAR
STARTCHAR U+0040
ENCODING 64
SWIDTH 0 0
DWIDTH 6 0
BBX 6 6 0 0
BITMAP
38
4C
54
4C
20
00
ENDCHAR
STARTCHAR U+0041
ENCODING 65
SWIDTH 0 0
DWIDTH 6 0
BBX 6 6 0 0
BITMAP
10
38
6C
7C
6C
00
ENDCHAR
STARTCHAR U+0042
ENCODING 66
SWIDTH 0 0
DWIDTH 6 0
BBX 6 6 0 0
BITMAP
78
6C
78
6C
78
00
ENDCHAR
STARTCHAR U+0043
ENCODING 67
SWIDTH 0 0
DWIDTH 6 0
BBX 6 6 0 0
BITMAP
38
6C
60
6C
38
00
ENDCHAR
STARTCHAR U+0044
ENCODING 68
SWIDTH 0 0
DWIDTH 6 0
BBX 6 6 0 0
BITMAP
78
6C
6C
6C
78
00
ENDCHAR
STARTCHAR U+0045
ENCODING 69
SWIDTH 0 0
DWIDTH 6 0
BBX 6 6 0 0
BITMAP
7C
60
78
60
7C
00
ENDCHAR
STARTCHAR U+0046
ENCODING 70
SWIDTH 0 0
DWIDTH 6 0
BBX 6 6 0 0
BITMAP
7C
60
78
60
60
00
ENDCHAR
STARTCHAR U+0047
ENCODING 71
SWIDTH 0 0
DWIDTH 6 0
BBX 6 6 0 0
BITMAP
3C
60
6C
64
3C
00
ENDCHAR
STARTCHAR U+0048
ENCODING 72
SWIDTH 0 0
DWIDTH 6 0
BBX 6 6 0 0
BITMAP
6C
6C
7C
6C
6C
00
ENDCHAR
STARTCHAR U+0049
ENCODING 73
SWIDTH 0 0
DWIDTH 6 0
BBX 6 6 0 0
BITMAP
3C
18
18
18
3C
00
ENDCHAR
STARTCHAR U+004A
ENCODING 74
SWIDTH 0 0
DWIDTH 6 0
BBX 6 6 0 0
BITMAP
3C
0C
0C
6C
38
00
ENDCHAR
STARTCHAR U+004B
ENCODING 75
SWIDTH 0 0
DWIDTH 6 0
BBX 6 6 0 0
BITMAP
6C
6C
78
6C
6C
00
ENDCHAR
STARTCHAR U+004C
ENCODING 76
SWIDTH 0 0
DWIDTH 6 0
BBX 6 6 0 0
BITMAP
60
60
60
60
7C
00
ENDCHAR
STARTCHAR U+004D
ENCODING 77
SWIDTH 0 0
DWIDTH 6 0
BBX 6 6 0 0
BITMAP
6C
7C
54
54
44
00
ENDCHAR
STARTCHAR U+004E
ENCODING 78
SWIDTH 0 0
DWIDTH 6 0
BBX 6 6 0 0
BITMAP
64
74
5C
4C
44
00
ENDCHAR
STARTCHAR U+004F
ENCODING 79
SWIDTH 0 0
DWIDTH 6 0
BBX 6 6 0 0
BITMAP
38
6C
6C
6C
38
00
ENDCHAR
STARTCHAR U+0050
ENCODING 80
SWIDTH 0 0
DWIDTH 6 0
BBX 6 6 0 0
BITMAP
78
6C
78
60
60
00
ENDCHAR
STARTCHAR U+0051
ENCODING 81
SWIDTH 0 0
DWIDTH 6 0
BBX 6 6 0 0
BITMAP
38
6C
6C
6C
34
00
ENDCHAR
STARTCHAR U+0052
ENCODING 82
SWIDTH 0 0
DWIDTH 6 0
BBX 6 6 0 0
BITMAP
78
6C
78
6C
64
00
ENDCHAR
STARTCHAR U+0053
ENCODING 83
SWIDTH 0 0
DWIDTH 6 0
BBX 6 6 0 0
BITMAP
3C
60
38
0C
78
00
ENDCHAR
STARTCHAR U+0054
ENCODING 84
SWIDTH 0 0
DWIDTH 6 0
BBX 6 6 0 0
BITMAP
3C
18
18
18
18
00
ENDCHAR
STARTCHAR U+0055
ENCODING 85
SWIDTH 0 0
DWIDTH 6 0
BBX 6 6 0 0
BITMAP
6C
6C
6C
6C
38
00
ENDCHAR
STARTCHAR U+0056
ENCODING 86
SWIDTH 0 0
DWIDTH 6 0
BBX 6 6 0 0
BITMAP
6C
6C
6C
38
10
00
ENDCHAR
STARTCHAR U+0057
ENCODING 87
SWIDTH 0 0
DWIDTH 6 0
BBX 6 6 0 0
BITMAP
44
54
54
7C
6C
00
ENDCHAR
STARTCHAR U+0058
ENCODING 88
SWIDTH 0 0
DWIDTH 6 0
BBX 6 6 0 0
BITMAP
6C
38
10
38
6C
00
ENDCHAR
STARTCHAR U+0059
ENCODING 89
SWIDTH 0 0
DWIDTH 6 0
BBX 6 6 0 0
BITMAP
44
6C
38
10
10
00
ENDCHAR
STARTCHAR U+005A
ENCODING 90
SWIDTH 0 0
DWIDTH 6 0
BBX 6 6 0 0
BITMAP
7C
0C
18
30
7C
00
ENDCHAR
STARTCHAR U+005B
ENCODING 91
SWIDTH 0 0
DWIDTH 6 0
BBX 6 6 0 0
BITMAP
38
30
30
30
38
00
ENDCHAR
STARTCHAR U+005C
ENCODING 92
SWIDTH 0 0
DWIDTH 6 0
BBX 6 6 0 0
BITMAP
60
70
38
1C
0C
00
ENDCHAR
STARTCHAR U+005D
ENCODING 93
SWIDTH 0 0
DWIDTH 6 0
BBX 6 6 0 0
BITMAP
38
18
18
18
38
00
ENDCHAR
STARTCHAR U+005E
ENCODING 94
SWIDTH 0 0
DWIDTH 6 0
BBX 6 6 0 0
BITMAP
00
10
38
6C
00
00
ENDCHAR
STARTCHAR U+005F
ENCODING 95
SWIDTH 0 0
DWIDTH 6 0
BBX 6 6 0 0
BITMAP
00
00
00
00
FC
00
ENDCHAR
STARTCHAR U+0060
ENCODING 96
SWIDTH 0 0
DWIDTH 6 0
BBX 6 6 0 0
BITMAP
30
30
00
00
00
00
ENDCHAR
STARTCHAR U+0061
ENCODING 97
SWIDTH 0 0
DWIDTH 6 0
BBX 6 6 0 0
BITMAP
10
38
6C
7C
6C
00
ENDCHAR
STARTCHAR U+0062
ENCODING 98
SWIDTH 0 0
DWIDTH 6 0
BBX 6 6 0 0
BITMAP
78
6C
78
6C
78
00
ENDCHAR
STARTCHAR U+0063
ENCODING 99
SWIDTH 0 0
DWIDTH 6 0
BBX 6 6 0 0
BITMAP
38
6C
60
6C
38
00
ENDCHAR
STARTCHAR U+0064
ENCODING 100
SWIDTH 0 0
DWIDTH 6 0
BBX 6 6 0 0
BITMAP
78
6C
6C
6C
78
00
ENDCHAR
STARTCHAR U+0065
ENCODING 101
SWIDTH 0 0
DWIDTH 6 0
BBX 6 6 0 0
BITMAP
7C
60
78
60
7C
00
ENDCHAR
STARTCHAR U+0066
ENCODING 102
SWIDTH 0 0
DWIDTH 6 0
BBX 6 6 0 0
BITMAP
7C
60
78
60
60
00
ENDCHAR
STARTCHAR U+0067
ENCODING 103
SWIDTH 0 0
DWIDTH 6 0
BBX 6 6 0 0
BITMAP
3C
60
6C
64
3C
00
ENDCHAR
STARTCHAR U+0068
ENCODING 104
SWIDTH 0 0
DWIDTH 6 0
BBX 6 6 0 0
BITMAP
6C
6C
7C
6C
6C
00
ENDCHAR
STARTCHAR U+0069
ENCODING 105
SWIDTH 0 0
DWIDTH 6 0
BBX 6 6 0 0
BITMAP
3C
18
18
18
3C
00
ENDCHAR
STARTCHAR U+006A
ENCODING 106
SWIDTH 0 0
DWIDTH 6 0
BBX 6 6 0 0
BITMAP
3C
0C
0C
6C
38
00
ENDCHAR
STARTCHAR U+006B
ENCODING 107
SWIDTH 0 0
DWIDTH 6 0
BBX 6 6 0 0
BITMAP
6C
6C
78
6C
6C
00
ENDCHAR
STARTCHAR U+006C
ENCODING 108
SWIDTH 0 0
DWIDTH 6 0
BBX 6 6 0 0
BITMAP
60
60
60
60
7C
00
ENDCHAR
STARTCHAR U+006D
ENCODING 109
SWIDTH 0 0
DWIDTH 6 0
BBX 6 6 0 0
BITMAP
6C
7C
54
54
44
00
ENDCHAR
STARTCHAR U+006E
ENCODING 110
SWIDTH 0 0
DWIDTH 6 0
BBX 6 6 0 0
BITMAP
64
74
5C
4C
44
00
ENDCHAR
STARTCHAR U+006F
ENCODING 111
SWIDTH 0 0
DWIDTH 6 0
BBX 6 6 0 0
BITMAP
38
6C
6C
6C
38
00
ENDCHAR
STARTCHAR U+0070
ENCODING 112
SWIDTH 0 0
DWIDTH 6 0
BBX 6 6 0 0
BITMAP
78
6C
78
60
60
00
ENDCHAR
STARTCHAR U+0071
ENCODING 113
SWIDTH 0 0
DWIDTH 6 0
BBX 6 6 0 0
BITMAP
38
6C
6C
6C
34
00
ENDCHAR
STARTCHAR U+0072
ENCODING 114
SWIDTH 0 0
DWIDTH 6 0
BBX 6 6 0 0
BITMAP
78
6C
78
6C
64
00
ENDCHAR
STARTCHAR U+0073
ENCODING 115
SWIDTH 0 0
DWIDTH 6 0
BBX 6 6 0 0
BITMAP
3C
60
38
0C
78
00
ENDCHAR
STARTCHAR U+0074
ENCODING 116
SWIDTH 0 0
DWIDTH 6 0
BBX 6 6 0 0
BITMAP
3C
18
18
18
18
00
ENDCHAR
STARTCHAR U+0075
ENCODING 117
SWIDTH 0 0
DWIDTH 6 0
BBX 6 6 0 0
BITMAP
6C
6C
6C
6C
38
00
ENDCHAR
STARTCHAR U+0076
ENCODING 118
SWIDTH 0 0
DWIDTH 6 0
BBX 6 6 0 0
BITMAP
6C
6C
6C
38
10
00
ENDCHAR
STARTCHAR U+0077
ENCODING 119
SWIDTH 0 0
DWIDTH 6 0
BBX 6 6 0 0
BITMAP
44
54
54
7C
6C
00
ENDCHAR
STARTCHAR U+0078
ENCODING 120
SWIDTH 0 0
DWIDTH 6 0
BBX 6 6 0 0
BITMAP
6C
38
10
38
6C
00
ENDCHAR
STARTCHAR U+0079
ENCODING 121
SWIDTH 0 0
DWIDTH 6 0
BBX 6 6 0 0
BITMAP
44
6C
38
10
10
00
ENDCHAR
STARTCHAR U+007A
ENCODING 122
SWIDTH 0 0
DWIDTH 6 0
BBX 6 6 0 0
BITMAP
7C
0C
18
30
7C
00
ENDCHAR
STARTCHAR U+007B
ENCODING 123
SWIDTH 0 0
DWIDTH 6 0
BBX 6 6 0 0
BITMAP
18
18
30
18
18
00
ENDCHAR
STARTCHAR U+007C
ENCODING 124
SWIDTH 0 0
DWIDTH 6 0
BBX 6 6 0 0
BITMAP
30
30
00
30
30
00
ENDCHAR
STARTCHAR U+007D
ENCODING 125
SWIDTH 0 0
DWIDTH 6 0
BBX 6 6 0 0
BITMAP
30
30
18
30
30
00
ENDCHAR
STARTCHAR U+007E
ENCODING 126
SWIDTH 0 0
DWIDTH 6 0
BBX 6 6 0 0
BITMAP
00
00
68
58
00
00
ENDCHAR
ENDFONT
